<svg id="Layer_1" data-name="Layer 1" xmlns="http://www.w3.org/2000/svg" viewBox="0 0 551.49 500"><defs><style>.cls-1{fill:#fff;}</style></defs><path class="cls-1" d="M227.44,318.17c-1.93,3.83-3.64,7.44-5.53,11-16.58,30.91-42.46,46.21-77.48,44.7-11.1-.48-22.11-3.41-33.13-5.34s-22-4-33-6c-11.91-2.24-19.93-13.29-18.07-24.8,2-12.25,12.64-20.49,25-18.49,18.49,3,36.91,6.48,55.33,10,19.12,3.61,33.28-3.71,42.64-20.68,13.68-24.81,21.45-51.87,31.1-78.23,5.11-13.94,9.9-28,14.83-42,.4-1.16.79-2.32,1.27-3.74-10.32-3.65-20.35-3.61-29.94.81a54.54,54.54,0,0,0-13.81,9.29c-9,8.26-17.47,17.13-26.25,25.66-5.85,5.67-12.88,7.33-20.59,4.87-7.48-2.39-12-7.77-13.54-15.45A18.8,18.8,0,0,1,131.49,192c9.86-9.88,19.62-19.88,30-29.23A81.54,81.54,0,0,1,255,151.43c17.83,9.56,35.4,19.6,53.08,29.43,19.55,10.87,38,8.41,53.81-7.22Q374,161.73,386.1,149.78c8.7-8.56,21.32-8.75,29.41-.48s7.62,20.64-.93,29.16c-8.26,8.24-16.46,16.55-24.9,24.6q-37.55,35.82-87,19.85l-2.43-.76c-7.9,22.16-15.78,44.27-23.77,66.71,1.33.56,2.43,1.07,3.56,1.5a80,80,0,0,1,51.2,78.5c-.91,19-2,37.92-3.12,56.87-.75,12.8-7.87,21.08-19.25,22.67A21.61,21.61,0,0,1,284.19,426c.66-15.88,1.87-31.73,2.55-47.61.3-7.16.85-14.52-.41-21.48-2.19-12.05-9.78-20.65-21.14-25.15C252.89,326.87,240.29,322.75,227.44,318.17Z"/><path class="cls-1" d="M397,300.06c-6.63,0-12.78.1-18.94,0-11.43-.24-22.86-.57-34.29-.92-8.37-.25-12.08-4.08-12.09-12.37v-15.1c0-8.16,3.75-12,11.81-12.23q23.67-.72,47.32-1.53c1.93-.07,3.85-.22,6.13-.36,0-4.42,0-8.63,0-12.84-.07-4.74,1.55-8.54,5.91-10.76s8.35-1.18,12.12,1.68q21.86,16.59,43.79,33.07c6.58,5,6.32,15.63-.71,21.19-7.26,5.74-14.71,11.25-22.08,16.86-7,5.33-14,10.63-21,16-3.68,2.84-7.64,3.72-11.86,1.72-4.38-2.09-6.14-5.89-6.1-10.65C397.07,309.6,397,305.38,397,300.06Z"/><path class="cls-1" d="M313,152.15c-22.46.39-41.22-18-41.5-40.61a41,41,0,0,1,82-.94C354,133.09,335.73,151.76,313,152.15Z"/></svg>