<svg id="Layer_1" data-name="Layer 1" xmlns="http://www.w3.org/2000/svg" xmlns:xlink="http://www.w3.org/1999/xlink" viewBox="0 0 500 500"><defs><style>.cls-1{fill:none;}.cls-2{clip-path:url(#clip-path);}.cls-3{fill:#fff;}.cls-4{opacity:0.18;}.cls-5{clip-path:url(#clip-path-3);}</style><clipPath id="clip-path"><rect class="cls-1" x="118.73" y="122.65" width="262.53" height="260.7"/></clipPath><clipPath id="clip-path-3"><rect class="cls-1" x="118.73" y="122.65" width="130.36" height="260.7"/></clipPath></defs><g id="Group_80" data-name="Group 80"><g id="Group_81" data-name="Group 81"><g id="Group_88" data-name="Group 88"><g class="cls-2"><g id="Group_87" data-name="Group 87"><g id="Group_86" data-name="Group 86"><g class="cls-2"><g id="Group_85" data-name="Group 85"><path id="Path_79" data-name="Path 79" class="cls-3" d="M250.92,122.65h0v38.18h0a92.17,92.17,0,0,1,0,184.34h0v38.17h0a130.35,130.35,0,0,0,0-260.69"/><g id="Group_84" data-name="Group 84" class="cls-4"><g id="Group_83" data-name="Group 83"><g class="cls-5"><g id="Group_82" data-name="Group 82"><path id="Path_80" data-name="Path 80" class="cls-3" d="M118.73,253A130.36,130.36,0,0,0,249.08,383.35h0V345.17h0a92.17,92.17,0,0,1,0-184.34h0V122.65h0A130.37,130.37,0,0,0,118.73,253"/></g></g></g></g><path id="Path_81" data-name="Path 81" class="cls-3" d="M200.68,221.86H239v12H212.43l-.71,10.77c1.22-.3,2.47-.55,3.74-.76a27.59,27.59,0,0,1,4.45-.31,30.71,30.71,0,0,1,8.58,1.15,19.45,19.45,0,0,1,6.93,3.56,16.71,16.71,0,0,1,4.66,6.19,22.24,22.24,0,0,1,1.7,9.12,22.66,22.66,0,0,1-1.7,9,19.18,19.18,0,0,1-4.8,6.81,21.23,21.23,0,0,1-7.51,4.29,30.22,30.22,0,0,1-9.76,1.52,32.49,32.49,0,0,1-13.17-2.46A35.26,35.26,0,0,1,194.7,276l8.28-9.85a32.31,32.31,0,0,0,7.12,5,16.9,16.9,0,0,0,7.74,1.78,11.83,11.83,0,0,0,7.61-2.24,7.85,7.85,0,0,0,2.8-6.53,7.45,7.45,0,0,0-3-6.35,13.13,13.13,0,0,0-8.05-2.24,22.68,22.68,0,0,0-5.56.67,31.81,31.81,0,0,0-4.85,1.64l-7.92-5.24Z"/><path id="Path_82" data-name="Path 82" class="cls-3" d="M305.1,265.63a31.64,31.64,0,0,1-5.64,10.23,26.52,26.52,0,0,1-8.77,6.86,25.57,25.57,0,0,1-11.35,2.49A26,26,0,0,1,268,282.76a25.43,25.43,0,0,1-8.72-6.81,31.54,31.54,0,0,1-5.56-10.19,41.59,41.59,0,0,1,0-25.36,31.76,31.76,0,0,1,5.65-10.29,26.35,26.35,0,0,1,8.76-6.85,25.58,25.58,0,0,1,11.35-2.5,25.87,25.87,0,0,1,11.34,2.46,25.4,25.4,0,0,1,8.72,6.8,31.58,31.58,0,0,1,5.56,10.24,39.78,39.78,0,0,1,2,12.63,39.27,39.27,0,0,1-2,12.72m-13-20.47a21.3,21.3,0,0,0-2.75-6.32,13.41,13.41,0,0,0-4.3-4.18,11.35,11.35,0,0,0-11.25,0,13.34,13.34,0,0,0-4.3,4.09,19.94,19.94,0,0,0-2.71,6.28,32,32,0,0,0-.93,7.91,30.64,30.64,0,0,0,1,7.92,21.1,21.1,0,0,0,2.76,6.32,13.48,13.48,0,0,0,4.29,4.18,11.37,11.37,0,0,0,11.26.05,13.06,13.06,0,0,0,4.29-4.14,20.48,20.48,0,0,0,2.72-6.27,31.23,31.23,0,0,0,.93-7.88,30.69,30.69,0,0,0-1-7.92"/></g></g></g></g></g></g></g></g></svg>