<svg id="Layer_1" data-name="Layer 1" xmlns="http://www.w3.org/2000/svg" viewBox="0 0 500 500"><defs><style>.cls-1{fill:#fff;}</style></defs><path class="cls-1" d="M377.87,235.92l-108.43-62.6a19.44,19.44,0,0,0-29.16,16.84v125.2a19.44,19.44,0,0,0,29.16,16.84l108.43-62.6A19.45,19.45,0,0,0,377.87,235.92Z"/><path class="cls-1" d="M230.56,235.92l-108.43-62.6A19.44,19.44,0,0,0,93,190.16v125.2a19.44,19.44,0,0,0,29.16,16.84l108.43-62.6A19.45,19.45,0,0,0,230.56,235.92Z"/><rect class="cls-1" x="386.12" y="121.63" width="20.91" height="262.27"/></svg>