<svg id="Layer_1" data-name="Layer 1" xmlns="http://www.w3.org/2000/svg" xmlns:xlink="http://www.w3.org/1999/xlink" viewBox="0 0 500 500"><defs><style>.cls-1{fill:none;}.cls-2{clip-path:url(#clip-path);}.cls-3{fill:#fff;}</style><clipPath id="clip-path"><rect class="cls-1" x="120.95" y="121.63" width="258.1" height="262.22"/></clipPath></defs><g id="Group_73" data-name="Group 73"><g class="cls-2"><g id="Group_72" data-name="Group 72"><path id="Path_74" data-name="Path 74" class="cls-3" d="M176.87,225.49A157.73,157.73,0,0,0,273.77,326c1.34-1.17,2.43-1.65,2.67-2.42,10.18-29,8.71-23,34-19.45,18.33,2.55,36.54,6.06,54.92,8.1,10,1.11,12.84,6.1,13.48,15.16a51.62,51.62,0,0,1-46.54,56.23,49.82,49.82,0,0,1-5.19.23c-98.09,2.08-188.74-74.07-203.4-171.37a232.06,232.06,0,0,1-2.69-42.21A51.1,51.1,0,0,1,174.6,121.7h.12c10,.53,15.65,3.62,16.8,15.18,2,20.33,5.95,40.48,9.27,60.67,3.09,18.77,2.55,19.82-15.9,25.53-2.24.67-4.49,1.33-8,2.41"/></g></g></g></svg>