<svg id="Layer_1" data-name="Layer 1" xmlns="http://www.w3.org/2000/svg" viewBox="0 0 500 500"><defs><style>.cls-1{fill:#fff;}</style></defs><g id="audio-icon-04-04"><path id="Path_63" data-name="Path 63" class="cls-1" d="M290.59,330.87c5,8.5,7.26,17,1.9,26-5.5,9.28-14.16,11.51-24.39,10.86-18.87-1.22-37.77-2.34-56.68-2.63-5.88-.09-12.12,1.9-17.64,4.26-6.6,2.81-12.52,7.14-18.86,10.61-14.89,8.15-32.3,3.86-41-10.7q-16.33-27.21-31.74-55c-8.17-14.79-3.65-33.27,11.7-40.47,20.44-9.59,33.61-24.42,41.82-45,4.16-10.38,10.29-19.92,15.16-30,4.34-9,10.56-15.15,21-15.47s16.93,5.6,21.84,14.22c12.81,22.5,25.85,44.88,38.79,67.3C265.14,286.92,277.74,309,290.59,330.87Z"/><path id="Path_64" data-name="Path 64" class="cls-1" d="M382.63,189.29C401,222.1,406.57,257,397.79,293.91c-.88,3.69-3.93,8.31-7.18,9.69-6,2.59-10-3.74-8.1-12.72,7.1-32.75,3.17-63.82-13.56-93.09-16.15-28.25-39.81-47.32-70.4-58-2.56-.88-5.92-.95-7.53-2.68-2.42-2.59-3.61-6.32-5.32-9.57,3.25-1.71,6.37-4.38,9.8-4.83,3.05-.41,6.52,1.43,9.71,2.55C338.74,137.15,364.36,158.6,382.63,189.29Z"/><path id="Path_65" data-name="Path 65" class="cls-1" d="M341,221.94c6.39,11.07,9.72,30.27,5.26,50.73-1.26,5.76-3.48,10.95-10.65,9.14-6.63-1.68-5.84-7.1-4.95-12.41,5.8-35.26-10.21-63.07-43.5-75.33-5.56-2-11.19-4.83-7.61-11.25,1.56-2.77,8.66-4.53,12.46-3.6C310.35,183.77,326.71,197.39,341,221.94Z"/></g></svg>