<svg id="Layer_1" data-name="Layer 1" xmlns="http://www.w3.org/2000/svg" viewBox="0 0 500 500"><defs><style>.cls-1{fill:#fff;}.cls-2{fill:none;stroke:#fff;stroke-linecap:round;stroke-width:20px;}</style></defs><g id="audio-icon-04-04"><path id="Path_63" data-name="Path 63" class="cls-1" d="M290.59,330.87c5,8.5,7.26,17,1.9,26-5.5,9.28-14.16,11.51-24.39,10.86-18.87-1.22-37.77-2.34-56.68-2.63-5.88-.09-12.12,1.9-17.64,4.26-6.6,2.81-12.52,7.14-18.86,10.61-14.89,8.15-32.3,3.86-41-10.7q-16.33-27.21-31.74-55C94,299.48,98.53,281,113.88,273.8c20.44-9.59,33.61-24.42,41.82-45,4.16-10.38,10.29-19.92,15.16-30,4.34-9,10.56-15.15,21-15.47s16.93,5.6,21.84,14.22c12.81,22.5,25.85,44.88,38.79,67.3C265.14,286.92,277.74,309,290.59,330.87Z"/></g><g id="Group_116" data-name="Group 116"><line id="Line_25" data-name="Line 25" class="cls-2" x1="301.13" y1="136.46" x2="397" y2="247.48"/><line id="Line_26" data-name="Line 26" class="cls-2" x1="397" y1="136.46" x2="301.13" y2="247.48"/></g></svg>