<svg xmlns="http://www.w3.org/2000/svg" viewBox="0 0 385.09 448.8"><defs><style>.cls-1{fill:#8c51a6;}</style></defs><g id="Layer_2" data-name="Layer 2"><g id="Layer_1-2" data-name="Layer 1"><path class="cls-1" d="M385.09,118.87a27.7,27.7,0,0,1-3.75-2.48Q359.85,96.5,338.45,76.52c-10.08-9.44-20-19-30.07-28.51-3.5-3.29-7.16-6.41-11-9.87L273.55,63.65,360.81,145Z"/><path class="cls-1" d="M362.17,204.47a187.21,187.21,0,0,0-104.93-113,177.48,177.48,0,0,0-47.92-12.73c-3-.34-4.1-1.4-4.07-4.42.13-10.86.19-21.72,0-32.57-.07-3.46,1.22-4.15,4.34-4.11,12.86.14,25.71,0,38.57.11,2.78,0,3.68-.86,3.65-3.65-.14-10-.19-20,0-29.95C251.88.77,250.73,0,247.51,0c-20.46.13-40.93.07-61.4.07-20.85,0-41.69,0-62.54-.06-2.86,0-4,.71-3.91,3.78q.27,15,0,30c0,3.11.92,4.07,4,4,13-.15,26,0,38.94-.1,2.46,0,3.59.61,3.56,3.34q-.16,16.85,0,33.7c0,2.7-1.1,3.72-3.68,4A174.7,174.7,0,0,0,109.1,93.76a185.69,185.69,0,0,0-65.17,49.65,189.53,189.53,0,0,0-28.2,44.87A177.39,177.39,0,0,0,.15,254a208.46,208.46,0,0,0,2.31,39,174.34,174.34,0,0,0,20.28,58.67A188.44,188.44,0,0,0,65.31,404,184.07,184.07,0,0,0,182.7,448.78a132.58,132.58,0,0,0,17.49-.77c9.32-1.1,18.69-2.25,27.85-4.24a172.76,172.76,0,0,0,52.52-21.18,188.74,188.74,0,0,0,53-47.28,185.17,185.17,0,0,0,30.33-59.25,180.37,180.37,0,0,0,7.56-41.92c.52-8.91-.18-17.91-.62-26.85A158.48,158.48,0,0,0,362.17,204.47ZM305.89,367.56c-34.54,38.86-78.24,56.84-130,54-42.48-2.3-78.39-19.62-107.19-50.91C38.26,337.65,25,298.25,27,253.6c3.5-78.45,70.49-150.73,145.2-149.51,57.76.06,95.48,15.63,126.42,46.48s46.21,68.85,46.28,112.29C345,302.33,332.33,337.82,305.89,367.56Z"/></g></g></svg>